<svg width="100" height="100" viewBox="0 0 100 100" fill="none" xmlns="http://www.w3.org/2000/svg">
<path d="M76.3333 53.125H62.5C52.125 53.125 46.875 47.25 46.875 35.625V23.6667C46.875 19.4167 47.375 13.3334 51.7917 10C55.5 7.25004 60.8333 7.04171 68.7083 9.33337C79.0417 12.3334 87.6667 20.9584 90.6667 31.2917C92.9583 39.125 92.75 44.5 90 48.1667C86.6667 52.625 80.5833 53.125 76.3333 53.125ZM59.5 14C57.7917 14 56.4583 14.3334 55.5833 15C53.9583 16.2084 53.1667 19.0417 53.1667 23.6667V35.6667C53.1667 45 56.75 46.9167 62.5417 46.9167H76.375C80.9583 46.9167 83.7917 46.125 85.0417 44.5C86.5 42.5834 86.375 38.75 84.75 33.125C82.3333 24.9167 75.25 17.7917 67.0417 15.4167C63.9583 14.4584 61.4583 14 59.5 14Z" fill="#EEFAFF"/>
<path d="M46.125 94.7916C43.9167 94.7916 41.6667 94.625 39.4167 94.25C22.375 91.5 8.5 77.6666 5.75 60.625C2.20833 38.7083 16.3333 18.0416 37.9583 13.625C39.6667 13.2916 41.2917 14.375 41.6667 16.0416C42 17.75 40.9167 19.375 39.25 19.75C20.9583 23.5 8.95833 41 12 59.625C14.3333 74.0416 26.0417 85.7499 40.4583 88.0833C59.1667 91.0833 76.625 79.0416 80.3333 60.6666C80.6667 58.9583 82.3333 57.875 84 58.2083C85.7083 58.5416 86.7917 60.2083 86.4583 61.875C82.5 81.3333 65.5 94.7916 46.125 94.7916Z" fill="#EEFAFF"/>
</svg>
