<svg width="100" height="100" viewBox="0 0 100 100" fill="none" xmlns="http://www.w3.org/2000/svg">
<path d="M79.1667 69.7917C77.4583 69.7917 76.0417 68.375 76.0417 66.6667V27.0833C76.0417 24.2083 73.7083 21.875 70.8333 21.875H47.9167C46.2083 21.875 44.7917 20.4583 44.7917 18.75C44.7917 17.0417 46.2083 15.625 47.9167 15.625H70.8333C77.1667 15.625 82.2916 20.75 82.2916 27.0833V66.6667C82.2916 68.375 80.875 69.7917 79.1667 69.7917Z" fill="#EEFAFF"/>
<path d="M58.3333 32.2914C57.625 32.2914 56.9166 32.0415 56.3333 31.5831L43.8333 21.1665C43.125 20.5831 42.7083 19.708 42.7083 18.7497C42.7083 17.7914 43.125 16.958 43.8333 16.333L56.3333 5.91631C57.6666 4.79131 59.625 4.9998 60.75 6.33313C61.875 7.66646 61.6667 9.62479 60.3334 10.7498L50.7084 18.7497L60.3334 26.7496C61.6667 27.8746 61.8333 29.833 60.75 31.1663C60.125 31.9163 59.2083 32.2914 58.3333 32.2914Z" fill="#EEFAFF"/>
<path d="M79.1667 94.7916C70.5417 94.7916 63.5417 87.7916 63.5417 79.1666C63.5417 70.5416 70.5417 63.5416 79.1667 63.5416C87.7917 63.5416 94.7917 70.5416 94.7917 79.1666C94.7917 87.7916 87.7917 94.7916 79.1667 94.7916ZM79.1667 69.7916C74 69.7916 69.7917 74 69.7917 79.1666C69.7917 84.3333 74 88.5416 79.1667 88.5416C84.3333 88.5416 88.5417 84.3333 88.5417 79.1666C88.5417 74 84.3333 69.7916 79.1667 69.7916Z" fill="#EEFAFF"/>
<path d="M52.0833 84.375H29.1667C22.8333 84.375 17.7083 79.25 17.7083 72.9167V33.3334C17.7083 31.625 19.125 30.2084 20.8333 30.2084C22.5417 30.2084 23.9583 31.625 23.9583 33.3334V72.9167C23.9583 75.7917 26.2917 78.125 29.1667 78.125H52.0833C53.7917 78.125 55.2083 79.5417 55.2083 81.25C55.2083 82.9584 53.7917 84.375 52.0833 84.375Z" fill="#EEFAFF"/>
<path d="M41.6664 94.7914C40.7914 94.7914 39.8748 94.4163 39.2498 93.6663C38.1248 92.333 38.333 90.3747 39.6663 89.2497L49.2913 81.2498L39.6663 73.2498C38.333 72.1248 38.1664 70.1665 39.2498 68.8332C40.3748 67.4998 42.3331 67.333 43.6664 68.4164L56.1664 78.833C56.8748 79.4164 57.2914 80.2914 57.2914 81.2498C57.2914 82.2081 56.8748 83.0415 56.1664 83.6665L43.6664 94.0832C43.0831 94.5415 42.3747 94.7914 41.6664 94.7914Z" fill="#EEFAFF"/>
<path d="M20.8333 36.4584C12.2083 36.4584 5.20834 29.4584 5.20834 20.8334C5.20834 12.2084 12.2083 5.20837 20.8333 5.20837C29.4583 5.20837 36.4583 12.2084 36.4583 20.8334C36.4583 29.4584 29.4583 36.4584 20.8333 36.4584ZM20.8333 11.4584C15.6667 11.4584 11.4583 15.6667 11.4583 20.8334C11.4583 26 15.6667 30.2084 20.8333 30.2084C26 30.2084 30.2083 26 30.2083 20.8334C30.2083 15.6667 26 11.4584 20.8333 11.4584Z" fill="#EEFAFF"/>
</svg>
