<svg width="100" height="100" viewBox="0 0 100 100" fill="none" xmlns="http://www.w3.org/2000/svg">
<path d="M31.25 63.5417C30.4583 63.5417 29.6667 63.25 29.0417 62.625C27.8333 61.4167 27.8333 59.4167 29.0417 58.2083L42.375 44.875C43.0417 44.2083 43.9167 43.875 44.875 43.9583C45.7917 44.0417 46.625 44.5417 47.1667 45.3333L51.7083 52.1667L66.5 37.375C67.7083 36.1667 69.7083 36.1667 70.9167 37.375C72.125 38.5833 72.125 40.5833 70.9167 41.7917L53.4167 59.2917C52.75 59.9583 51.875 60.2917 50.9167 60.2083C50 60.125 49.1667 59.625 48.625 58.8333L44.0833 52L33.4583 62.625C32.8333 63.25 32.0417 63.5417 31.25 63.5417Z" fill="#EEFAFF"/>
<path d="M68.75 51.0417C67.0417 51.0417 65.625 49.625 65.625 47.9167V42.7084H60.4167C58.7083 42.7084 57.2917 41.2917 57.2917 39.5834C57.2917 37.875 58.7083 36.4584 60.4167 36.4584H68.75C70.4583 36.4584 71.875 37.875 71.875 39.5834V47.9167C71.875 49.625 70.4583 51.0417 68.75 51.0417Z" fill="#EEFAFF"/>
<path d="M62.5 94.7917H37.5C14.875 94.7917 5.20833 85.125 5.20833 62.5V37.5C5.20833 14.875 14.875 5.20837 37.5 5.20837H62.5C85.125 5.20837 94.7917 14.875 94.7917 37.5V62.5C94.7917 85.125 85.125 94.7917 62.5 94.7917ZM37.5 11.4584C18.2917 11.4584 11.4583 18.2917 11.4583 37.5V62.5C11.4583 81.7084 18.2917 88.5417 37.5 88.5417H62.5C81.7083 88.5417 88.5417 81.7084 88.5417 62.5V37.5C88.5417 18.2917 81.7083 11.4584 62.5 11.4584H37.5Z" fill="#EEFAFF"/>
</svg>
